<svg width="21" height="22" viewBox="0 0 21 22" fill="none" xmlns="http://www.w3.org/2000/svg">
<g clip-path="url(#clip0_1_107)">
<path d="M8.65307 12.0804C8.72595 10.7803 9.36258 9.63496 10.323 8.82302C11.2649 8.02552 12.5326 7.53809 13.9159 7.53809C15.2978 7.53809 16.5655 8.02552 17.5081 8.82302C18.4678 9.63496 19.1045 10.7803 19.178 12.079C19.2509 13.4148 18.714 14.6558 17.7721 15.5757C16.8116 16.5113 15.4456 17.0985 13.9159 17.0985C12.3862 17.0985 11.0174 16.5113 10.0576 15.5757C9.11507 14.6558 8.57951 13.4148 8.65307 12.0804Z" fill="white"/>
<path d="M11.2157 12.1969C11.2531 11.5298 11.5798 10.9421 12.0726 10.5255C12.5558 10.1163 13.2063 9.86621 13.9161 9.86621C14.6251 9.86621 15.2756 10.1163 15.7593 10.5255C16.2517 10.9421 16.5784 11.5298 16.6161 12.1962C16.6535 12.8816 16.378 13.5183 15.8947 13.9903C15.4019 14.4704 14.701 14.7717 13.9161 14.7717C13.1312 14.7717 12.4289 14.4704 11.9364 13.9903C11.4528 13.5183 11.178 12.8816 11.2157 12.1969Z" fill="#265787"/>
<path d="M6.91576 13.5452C6.92035 13.8063 7.0036 14.3136 7.12847 14.7097C7.39093 15.5482 7.83611 16.3239 8.45556 17.0076C9.09124 17.7103 9.87402 18.2747 10.7781 18.6754C11.7285 19.0963 12.7582 19.3108 13.8277 19.309C14.8956 19.3076 15.9253 19.0889 16.8756 18.6649C17.7797 18.2602 18.5618 17.6934 19.1964 16.9903C19.8155 16.3038 20.26 15.5267 20.5232 14.6882C20.6554 14.2645 20.7391 13.8345 20.7726 13.4031C20.8054 12.978 20.7916 12.5522 20.7313 12.1268C20.6135 11.2978 20.3267 10.5199 19.885 9.8109C19.4811 9.15935 18.9604 8.58895 18.3413 8.10884L18.3427 8.10777L12.095 3.31057C12.0893 3.30634 12.0848 3.30176 12.0788 3.29788C11.6688 2.98322 10.9796 2.98428 10.5287 3.29965C10.073 3.61854 10.0208 4.14591 10.4264 4.47857L10.4247 4.48033L13.0305 6.59936L5.0881 6.60784H5.07752C4.42103 6.60854 3.78994 7.03926 3.66507 7.58357C3.53666 8.13811 3.98255 8.59811 4.66514 8.60058L4.66409 8.60306L8.68979 8.59529L1.50616 14.1093C1.49699 14.116 1.48711 14.1231 1.47864 14.1298C0.800988 14.6487 0.581928 15.5115 1.00877 16.0576C1.44196 16.6128 2.36302 16.6139 3.04773 16.0608L6.96832 12.8521C6.96832 12.8521 6.91117 13.2852 6.91576 13.5452ZM16.9903 14.9958C16.1824 15.8188 15.0515 16.2855 13.8277 16.288C12.6023 16.2901 11.4713 15.8276 10.6635 15.006C10.2688 14.6056 9.97879 14.1449 9.79994 13.6542C9.62461 13.172 9.55653 12.6602 9.60169 12.1437C9.64437 11.6389 9.79465 11.1574 10.0345 10.7217C10.2702 10.2935 10.5947 9.90651 10.9954 9.57915C11.7807 8.93924 12.7804 8.59282 13.826 8.59141C14.8726 8.59 15.8716 8.93324 16.6576 9.57103C17.0576 9.89698 17.3818 10.2825 17.6175 10.7101C17.8584 11.1454 18.0076 11.6252 18.0521 12.1314C18.0965 12.6471 18.0284 13.1583 17.8531 13.6408C17.6739 14.1329 17.385 14.5936 16.9903 14.9958Z" fill="#EA7600"/>
</g>
<defs>
<clipPath id="clip0_1_107">
<rect width="20" height="21" fill="white" transform="translate(0.789917 0.5625)"/>
</clipPath>
</defs>
</svg>
