<svg width="21" height="22" viewBox="0 0 21 22" fill="none" xmlns="http://www.w3.org/2000/svg">
<g clip-path="url(#clip0_1_72)">
<mask id="mask0_1_72" style="mask-type:luminance" maskUnits="userSpaceOnUse" x="0" y="1" width="21" height="21">
<path d="M20.5 1.0625H0.5V21.0625H20.5V1.0625Z" fill="white"/>
</mask>
<g mask="url(#mask0_1_72)">
<path d="M16.7778 1.0625H4.22222C2.16667 1.0625 0.5 2.75694 0.5 4.84861V17.2764C0.5 19.3681 2.16667 21.0625 4.22222 21.0625H16.7778C18.8333 21.0625 20.5 19.3681 20.5 17.2764V4.84861C20.5 2.75694 18.8333 1.0625 16.7778 1.0625Z" fill="#2C2E37"/>
<path d="M8.15572 18.9462C9.50572 18.9462 10.6029 17.8296 10.6029 16.4546V13.9629H8.15572C6.80572 13.9629 5.7085 15.0796 5.7085 16.4546C5.7085 17.8296 6.80572 18.9462 8.15572 18.9462Z" fill="#0ACF83"/>
<path d="M5.70557 11.4712C5.70557 10.0962 6.80279 8.97949 8.15279 8.97949H10.6V13.9628H8.15279C6.80279 13.9628 5.70557 12.8462 5.70557 11.4712Z" fill="#A259FF"/>
<path d="M5.70557 6.48776C5.70557 5.11276 6.80279 3.99609 8.15279 3.99609H10.6V8.97943H8.15279C6.80279 8.97943 5.70557 7.86276 5.70557 6.48776Z" fill="#F24E1E"/>
<path d="M10.6025 3.99609H13.0498C14.3998 3.99609 15.497 5.11276 15.497 6.48776C15.497 7.86276 14.3998 8.97943 13.0498 8.97943H10.6025V3.99609Z" fill="#FF7262"/>
<path d="M15.497 11.4712C15.497 12.8462 14.3998 13.9628 13.0498 13.9628C11.6998 13.9628 10.6025 12.8462 10.6025 11.4712C10.6025 10.0962 11.6998 8.97949 13.0498 8.97949C14.3998 8.97949 15.497 10.0962 15.497 11.4712Z" fill="#1ABCFE"/>
</g>
</g>
<defs>
<clipPath id="clip0_1_72">
<rect width="20" height="21" fill="white" transform="translate(0.5 0.5625)"/>
</clipPath>
</defs>
</svg>
