<svg width="21" height="20" viewBox="0 0 21 20" fill="none" xmlns="http://www.w3.org/2000/svg">
<mask id="mask0_1_92" style="mask-type:luminance" maskUnits="userSpaceOnUse" x="0" y="0" width="21" height="20">
<path d="M20.8 0.0625H0.799988V19.5625H20.8V0.0625Z" fill="white"/>
</mask>
<g mask="url(#mask0_1_92)">
<path d="M4.34166 0.0625H17.2583C19.2167 0.0625 20.8 1.64583 20.8 3.60417V16.0208C20.8 17.9792 19.2167 19.5625 17.2583 19.5625H4.34166C2.38332 19.5625 0.799988 17.9792 0.799988 16.0208V3.60417C0.799988 1.64583 2.38332 0.0625 4.34166 0.0625Z" fill="#330000"/>
<path d="M10.4665 11.7294H7.36654L6.73321 13.6877C6.71654 13.7627 6.64987 13.8127 6.57487 13.8044H5.00821C4.91654 13.8044 4.89154 13.7544 4.91654 13.6544L7.59987 5.92936C7.62487 5.84603 7.64987 5.75436 7.68321 5.65436C7.71654 5.47936 7.73321 5.29603 7.73321 5.1127C7.72487 5.07103 7.75821 5.02936 7.79987 5.02103H9.95821C10.0249 5.02103 10.0582 5.04603 10.0665 5.0877L13.1082 13.671C13.1332 13.7627 13.1082 13.8044 13.0249 13.8044H11.2832C11.2249 13.8127 11.1666 13.771 11.1499 13.7127L10.4665 11.7294ZM7.84987 10.0377H9.96654C9.91654 9.8627 9.84987 9.65436 9.77487 9.4377C9.69987 9.2127 9.62487 8.97103 9.54987 8.72103C9.46654 8.4627 9.39154 8.2127 9.30821 7.95436C9.22487 7.69603 9.14987 7.45436 9.08321 7.2127C9.01654 6.97936 8.95821 6.7627 8.89987 6.5627H8.88321C8.80821 6.92103 8.71654 7.27936 8.59987 7.6377C8.47487 8.0377 8.34987 8.45436 8.21654 8.87103C8.09987 9.29603 7.97487 9.6877 7.84987 10.0377ZM14.9666 6.47936C14.6916 6.4877 14.4249 6.37936 14.2249 6.1877C14.0332 5.97935 13.9332 5.70436 13.9416 5.42103C13.9332 5.1377 14.0416 4.87103 14.2416 4.67936C14.4416 4.4877 14.7082 4.3877 14.9832 4.3877C15.3082 4.3877 15.5582 4.4877 15.7416 4.67936C15.9249 4.87936 16.0249 5.14603 16.0166 5.42103C16.0249 5.70436 15.9249 5.97935 15.7249 6.1877C15.5332 6.3877 15.2499 6.49603 14.9666 6.47936ZM14.0332 13.7127V7.29603C14.0332 7.2127 14.0666 7.17936 14.1416 7.17936H15.7915C15.8666 7.17936 15.8999 7.22103 15.8999 7.29603V13.7127C15.8999 13.8044 15.8666 13.846 15.7915 13.846H14.1582C14.0749 13.846 14.0332 13.796 14.0332 13.7127Z" fill="#FF9A00"/>
</g>
</svg>
