<svg width="25" height="25" viewBox="0 0 25 25" fill="none" xmlns="http://www.w3.org/2000/svg">
<g clip-path="url(#clip0_1_1771)">
<path d="M12.5 24.875C19.1274 24.875 24.5 19.5024 24.5 12.875C24.5 6.24758 19.1274 0.875 12.5 0.875C5.87258 0.875 0.5 6.24758 0.5 12.875C0.5 19.5024 5.87258 24.875 12.5 24.875Z" fill="#1D6CE3"/>
<path fill-rule="evenodd" clip-rule="evenodd" d="M19.2641 9.13437C19.5942 9.46443 19.5756 9.98218 19.2226 10.2908L10.8007 17.6544C10.4644 17.9485 9.94193 17.9485 9.60558 17.6545L5.77745 14.3081C5.42444 13.9995 5.4058 13.4818 5.73582 13.1517C6.06583 12.8216 6.61954 12.8042 6.97255 13.1128L10.2031 15.9367L18.0274 9.09556C18.3804 8.78694 18.9341 8.80432 19.2641 9.13437Z" fill="white"/>
</g>
<defs>
<clipPath id="clip0_1_1771">
<rect width="24" height="24" fill="white" transform="translate(0.5 0.875)"/>
</clipPath>
</defs>
</svg>
