<svg width="250" height="31" viewBox="0 0 250 31" fill="none" xmlns="http://www.w3.org/2000/svg">
<g clip-path="url(#clip0_1_145)">
<path fill-rule="evenodd" clip-rule="evenodd" d="M248.513 24.916C248.546 24.8666 248.578 24.812 248.609 24.7543C248.618 24.7394 248.627 24.7246 248.635 24.7099L248.633 24.7094C248.746 24.4969 248.845 24.2525 248.894 24.0801L243.856 23.3073C243.78 23.4338 243.513 23.7416 243.254 23.9809C242.174 24.9302 240.709 25.4936 239.082 25.4936C236.173 25.4936 233.854 23.6517 233.107 21.026H249.343C249.421 20.4382 249.5 19.8112 249.5 19.2233C249.5 13.0706 244.822 8.44629 238.768 8.44629C232.674 8.44629 228.036 13.0706 228.036 19.2233C228.036 25.3761 232.792 30.0003 239.082 30.0003C243.198 30.0003 246.637 28.0117 248.513 24.916ZM238.689 12.9531C241.402 12.9531 243.642 14.6774 244.429 17.2247H233.146C233.893 14.6774 236.134 12.9531 238.689 12.9531Z" fill="#303030"/>
<path fill-rule="evenodd" clip-rule="evenodd" d="M220.719 29.4167H225.633V1.10547H220.719V29.4167Z" fill="#303030"/>
<path fill-rule="evenodd" clip-rule="evenodd" d="M212.057 29.417H216.971V9.03856H212.057V29.417ZM211.389 4.10069C211.389 5.90339 212.726 7.23583 214.495 7.23583C216.303 7.23583 217.64 5.90339 217.64 4.10069C217.64 2.33718 216.303 1.00488 214.495 1.00488C212.726 1.00488 211.389 2.33718 211.389 4.10069Z" fill="#303030"/>
<path fill-rule="evenodd" clip-rule="evenodd" d="M176.551 29.4106H181.465V17.4187C181.465 14.989 183.312 13.1079 185.75 13.1079C188.187 13.1079 189.995 14.989 189.995 17.4187V29.4106H194.909V17.4187C194.909 14.989 196.757 13.1079 199.194 13.1079C201.592 13.1079 203.44 14.989 203.44 17.4187V29.4106H208.315V16.0079C208.315 11.697 204.894 8.44434 200.177 8.44434C196.285 8.44434 194.398 10.6389 193.651 11.7754C192.315 9.73759 189.995 8.44434 187.204 8.44434C184.099 8.44434 182.33 10.0511 181.465 11.2268V9.03216H176.551V29.4106Z" fill="#303030"/>
<path fill-rule="evenodd" clip-rule="evenodd" d="M162.158 23.3363C162.511 24.7471 163.849 25.766 166.168 25.766C167.977 25.766 169.471 25.0606 169.471 23.7673C169.471 22.9444 168.802 22.3565 167.191 21.8079L162.984 20.4754C159.525 19.3389 158.11 17.6538 158.11 14.793C158.11 10.2862 161.648 8.44434 166.011 8.44434C170.236 8.44434 172.95 10.327 173.704 13.2926H173.705C173.871 13.9006 173.928 14.6859 173.916 14.9541L169.306 15.2109C169.301 15.0316 169.252 14.6747 169.123 14.3845C168.668 13.395 167.523 12.6768 165.657 12.6768C164.124 12.6768 162.788 13.2254 162.788 14.4403C162.788 15.1849 163.338 15.6552 164.596 16.0862L168.802 17.497C172.576 18.8295 174.149 20.6714 174.149 23.6106C174.149 28.039 170.493 29.9984 166.051 29.9984C161.282 29.9984 158.378 27.8535 157.648 24.4855L157.647 24.4806C157.613 24.3236 157.584 24.1643 157.559 24.0025L157.56 24.0023C157.495 23.5895 157.481 23.3078 157.484 22.9742L162.087 22.764C162.089 22.8697 162.108 23.1306 162.158 23.3363Z" fill="#303030"/>
<path fill-rule="evenodd" clip-rule="evenodd" d="M134.441 19.2233C134.441 13.0706 139.08 8.44629 145.252 8.44629C151.424 8.44629 156.102 13.0706 156.102 19.2233C156.102 25.3761 151.424 30.0003 145.252 30.0003C139.08 30.0003 134.441 25.3761 134.441 19.2233ZM145.252 13.3449C142.028 13.3449 139.512 15.8923 139.512 19.2233C139.512 22.5544 142.028 25.1017 145.252 25.1017C148.514 25.1017 150.991 22.5544 150.991 19.2233C150.991 15.8923 148.514 13.3449 145.252 13.3449Z" fill="#303030"/>
<path fill-rule="evenodd" clip-rule="evenodd" d="M131.431 24.916C131.463 24.8666 131.496 24.812 131.527 24.7543C131.536 24.7394 131.545 24.7246 131.553 24.7099L131.551 24.7094C131.664 24.4969 131.763 24.2525 131.812 24.0801L126.774 23.3073C126.698 23.4338 126.431 23.7416 126.172 23.9809C125.092 24.9302 123.627 25.4936 122 25.4936C119.091 25.4936 116.772 23.6517 116.025 21.026H132.261C132.339 20.4382 132.418 19.8112 132.418 19.2233C132.418 13.0706 127.74 8.44629 121.686 8.44629C115.592 8.44629 110.954 13.0706 110.954 19.2233C110.954 25.3761 115.71 30.0003 122 30.0003C126.116 30.0003 129.555 28.0117 131.431 24.916ZM121.607 12.9531C124.32 12.9531 126.56 14.6774 127.347 17.2247H116.064C116.811 14.6774 119.052 12.9531 121.607 12.9531Z" fill="#303030"/>
<path fill-rule="evenodd" clip-rule="evenodd" d="M103.677 1.10938V10.6794C101.986 9.26856 99.8634 8.44559 97.4655 8.44559C91.8046 8.44559 87.5195 13.0699 87.5195 19.2226C87.5195 25.3754 91.8046 29.9996 97.4655 29.9996C99.8634 29.9996 101.986 29.1767 103.677 27.7659V29.4118H108.551V1.10938H103.677ZM103.598 19.2226C103.598 15.8916 101.2 13.3442 98.0943 13.3442C95.028 13.3442 92.5908 15.8916 92.5908 19.2226C92.5908 22.5537 95.028 25.101 98.0943 25.101C101.2 25.101 103.598 22.5537 103.598 19.2226Z" fill="#303030"/>
<path fill-rule="evenodd" clip-rule="evenodd" d="M80.1907 29.4122H85.1047V9.03376H80.1907V29.4122ZM79.5225 4.09592C79.5225 5.89862 80.8591 7.23106 82.6281 7.23106C84.4364 7.23106 85.773 5.89862 85.773 4.09592C85.773 2.33241 84.4364 1 82.6281 1C80.8591 1 79.5225 2.33241 79.5225 4.09592Z" fill="#303030"/>
<path fill-rule="evenodd" clip-rule="evenodd" d="M57.2021 9.03418L65.6149 29.4126H70.2929L78.7057 9.03418H73.6344L67.9736 23.2207L62.2734 9.03418H57.2021Z" fill="#303030"/>
<path fill-rule="evenodd" clip-rule="evenodd" d="M22.9909 28.2958C13.5644 28.2958 5.36056 23.4749 0.5 15.4647L6.9532 11.5732C10.5061 17.4284 16.315 20.7773 22.9909 20.7773C29.6667 20.7773 35.4756 17.4284 39.0285 11.5732L45.4817 15.4647C40.6211 23.4749 32.4174 28.2958 22.9909 28.2958Z" fill="#303030"/>
</g>
<defs>
<clipPath id="clip0_1_145">
<rect width="249" height="30" fill="white" transform="translate(0.5 0.5)"/>
</clipPath>
</defs>
</svg>
