<svg width="21" height="21" viewBox="0 0 21 21" fill="none" xmlns="http://www.w3.org/2000/svg">
<mask id="mask0_1_103" style="mask-type:luminance" maskUnits="userSpaceOnUse" x="0" y="0" width="21" height="21">
<path d="M20.02 0.0625H0.0199585V20.0625H20.02V0.0625Z" fill="white"/>
</mask>
<g mask="url(#mask0_1_103)">
<path d="M3.56163 0.0625H16.4783C18.4367 0.0625 20.02 1.68643 20.02 3.69498V16.43C20.02 18.4386 18.4367 20.0625 16.4783 20.0625H3.56163C1.60329 20.0625 0.0199585 18.4386 0.0199585 16.43V3.69498C0.0199585 1.68643 1.60329 0.0625 3.56163 0.0625Z" fill="#001E36"/>
<path d="M4.18597 14.2874V5.75906C4.18597 5.70104 4.21097 5.66789 4.2693 5.66789C4.41097 5.66789 4.5443 5.66789 4.73597 5.6596C4.93597 5.65132 5.1443 5.65132 5.3693 5.64303C5.5943 5.63474 5.83597 5.63474 6.0943 5.62645C6.35263 5.61816 6.60263 5.61816 6.85263 5.61816C7.53597 5.61816 8.10263 5.70104 8.5693 5.87509C8.98597 6.01599 9.3693 6.24805 9.68597 6.55471C9.95263 6.81993 10.161 7.14316 10.2943 7.49954C10.4193 7.84764 10.486 8.20402 10.486 8.57698C10.486 9.28975 10.3193 9.8782 9.98597 10.3423C9.65263 10.8065 9.18597 11.1546 8.6443 11.3535C8.07763 11.5607 7.45263 11.6353 6.7693 11.6353C6.5693 11.6353 6.43597 11.6353 6.35263 11.627C6.2693 11.6187 6.15263 11.6187 5.9943 11.6187V14.2791C6.00263 14.3371 5.96097 14.3869 5.90263 14.3952C5.8943 14.3952 5.88597 14.3952 5.8693 14.3952H4.28597C4.2193 14.3952 4.18597 14.362 4.18597 14.2874ZM6.00263 7.26748V10.0522C6.1193 10.0605 6.22763 10.0688 6.32763 10.0688H6.7693C7.0943 10.0688 7.4193 10.0191 7.72763 9.9196C7.9943 9.845 8.22763 9.6876 8.41097 9.48038C8.58597 9.27318 8.6693 8.99138 8.6693 8.62671C8.67763 8.36978 8.61097 8.11285 8.47763 7.88908C8.33597 7.67359 8.13597 7.50783 7.8943 7.41666C7.58597 7.29234 7.25263 7.24261 6.91097 7.2509C6.6943 7.2509 6.50263 7.2509 6.3443 7.25919C6.17763 7.2509 6.06097 7.25919 6.00263 7.26748Z" fill="#31A8FF"/>
<path d="M15.6858 9.54692C15.4358 9.41431 15.1692 9.32314 14.8858 9.26513C14.5775 9.19882 14.2692 9.15738 13.9525 9.15738C13.7858 9.14909 13.6108 9.17396 13.4525 9.2154C13.3442 9.24026 13.2525 9.29828 13.1942 9.38116C13.1525 9.44746 13.1275 9.53034 13.1275 9.6049C13.1275 9.6795 13.1608 9.7541 13.2108 9.8204C13.2858 9.9116 13.3858 9.9862 13.4942 10.0442C13.6858 10.1437 13.8858 10.2348 14.0858 10.3177C14.5358 10.4669 14.9692 10.6741 15.3692 10.9227C15.6442 11.0968 15.8692 11.3288 16.0275 11.6106C16.1608 11.8758 16.2275 12.1659 16.2192 12.4643C16.2275 12.8538 16.1108 13.2434 15.8942 13.5666C15.6608 13.8981 15.3358 14.1551 14.9608 14.3042C14.5525 14.4783 14.0525 14.5695 13.4525 14.5695C13.0692 14.5695 12.6942 14.5363 12.3192 14.4617C12.0275 14.412 11.7358 14.3208 11.4692 14.1965C11.4108 14.1633 11.3692 14.1053 11.3775 14.039V12.5969C11.3775 12.572 11.3858 12.5389 11.4108 12.5223C11.4358 12.5057 11.4608 12.514 11.4858 12.5306C11.8108 12.7212 12.1525 12.8538 12.5192 12.9367C12.8358 13.0196 13.1692 13.061 13.5025 13.061C13.8192 13.061 14.0442 13.0196 14.1942 12.945C14.3275 12.887 14.4192 12.7461 14.4192 12.5969C14.4192 12.4809 14.3525 12.3731 14.2192 12.2654C14.0858 12.1576 13.8108 12.0333 13.4025 11.8758C12.9775 11.7267 12.5858 11.5278 12.2192 11.2791C11.9608 11.0968 11.7442 10.8564 11.5858 10.5746C11.4525 10.3094 11.3858 10.0193 11.3942 9.7293C11.3942 9.37287 11.4942 9.03306 11.6775 8.72641C11.8858 8.39488 12.1942 8.12967 12.5525 7.96391C12.9442 7.765 13.4358 7.67383 14.0275 7.67383C14.3692 7.67383 14.7192 7.69869 15.0608 7.74842C15.3108 7.78157 15.5525 7.84788 15.7775 7.93904C15.8108 7.94733 15.8442 7.98048 15.8608 8.01364C15.8692 8.04679 15.8775 8.07994 15.8775 8.11309V9.46404C15.8775 9.49719 15.8608 9.53034 15.8358 9.54692C15.7608 9.5635 15.7192 9.5635 15.6858 9.54692Z" fill="#31A8FF"/>
</g>
</svg>
